REM DIRINDEX 1\2\5,1\2\6,1\2\7,1\2\8,1\3\9,1\3\10,1\3\11,1\4\12,1\4\13,1\4\14,1\4\15,1\4\16
REM DIRNAME cjc034,folder01,folder02,folder03,folder04,folder05,folder06,folder07,folder08,folder09,folder10,folder11,folder12,folder13,folder14,folder15
TITLE ""
FILE "1200_sec03_0916_0924.mp3" MP3
  TRACK 01 AUDIO
    TITLE "0:"
    INDEX 01 00:00:00
  TRACK 02 AUDIO
    TITLE "12:cjc034_07340"
    INDEX 01 00:00:19
  TRACK 03 AUDIO
    TITLE "0:"
    INDEX 01 00:01:46
  TRACK 04 AUDIO
    TITLE "13:cjc034_07341"
    INDEX 01 00:02:06
  TRACK 05 AUDIO
    TITLE "0:"
    INDEX 01 00:04:05
  TRACK 06 AUDIO
    TITLE "14:cjc034_07342"
    INDEX 01 00:04:40
  TRACK 07 AUDIO
    TITLE "0:"
    INDEX 01 00:05:69
  TRACK 08 AUDIO
    TITLE "15:cjc034_07343"
    INDEX 01 00:06:26
  TRACK 09 AUDIO
    TITLE "0:"
    INDEX 01 00:10:19
  TRACK 10 AUDIO
    TITLE "12:cjc034_07344"
    INDEX 01 00:11:52
  TRACK 11 AUDIO
    TITLE "0:"
    INDEX 01 00:12:65
  TRACK 12 AUDIO
    TITLE "13:cjc034_07345"
    INDEX 01 00:13:22
  TRACK 13 AUDIO
    TITLE "0:"
    INDEX 01 00:14:64
  TRACK 14 AUDIO
    TITLE "14:cjc034_07346"
    INDEX 01 00:15:21
  TRACK 15 AUDIO
    TITLE "0:"
    INDEX 01 00:16:32
  TRACK 16 AUDIO
    TITLE "15:cjc034_07347"
    INDEX 01 00:16:65
  TRACK 17 AUDIO
    TITLE "0:"
    INDEX 01 00:20:24
  TRACK 18 AUDIO
    TITLE "12:cjc034_07348"
    INDEX 01 00:21:66
  TRACK 19 AUDIO
    TITLE "0:"
    INDEX 01 00:23:12
  TRACK 20 AUDIO
    TITLE "13:cjc034_07349"
    INDEX 01 00:23:48
  TRACK 21 AUDIO
    TITLE "0:"
    INDEX 01 00:24:63
  TRACK 22 AUDIO
    TITLE "14:cjc034_07350"
    INDEX 01 00:25:23
  TRACK 23 AUDIO
    TITLE "0:"
    INDEX 01 00:26:42
  TRACK 24 AUDIO
    TITLE "15:cjc034_07351"
    INDEX 01 00:27:02
  TRACK 25 AUDIO
    TITLE "0:"
    INDEX 01 00:30:06
  TRACK 26 AUDIO
    TITLE "12:cjc034_07352"
    INDEX 01 00:31:37
  TRACK 27 AUDIO
    TITLE "0:"
    INDEX 01 00:32:41
  TRACK 28 AUDIO
    TITLE "13:cjc034_07353"
    INDEX 01 00:32:74
  TRACK 29 AUDIO
    TITLE "0:"
    INDEX 01 00:34:26
  TRACK 30 AUDIO
    TITLE "14:cjc034_07354"
    INDEX 01 00:34:61
  TRACK 31 AUDIO
    TITLE "0:"
    INDEX 01 00:35:66
  TRACK 32 AUDIO
    TITLE "15:cjc034_07355"
    INDEX 01 00:36:23
  TRACK 33 AUDIO
    TITLE "0:"
    INDEX 01 00:39:09
  TRACK 34 AUDIO
    TITLE "12:cjc034_07356"
    INDEX 01 00:40:42
  TRACK 35 AUDIO
    TITLE "0:"
    INDEX 01 00:41:55
  TRACK 36 AUDIO
    TITLE "13:cjc034_07357"
    INDEX 01 00:42:12
  TRACK 37 AUDIO
    TITLE "0:"
    INDEX 01 00:43:25
  TRACK 38 AUDIO
    TITLE "14:cjc034_07358"
    INDEX 01 00:43:58
  TRACK 39 AUDIO
    TITLE "0:"
    INDEX 01 00:44:69
  TRACK 40 AUDIO
    TITLE "15:cjc034_07359"
    INDEX 01 00:45:28
  TRACK 41 AUDIO
    TITLE "0:"
    INDEX 01 00:48:49
  TRACK 42 AUDIO
    TITLE "12:cjc034_07360"
    INDEX 01 00:50:07
  TRACK 43 AUDIO
    TITLE "0:"
    INDEX 01 00:51:16
  TRACK 44 AUDIO
    TITLE "13:cjc034_07361"
    INDEX 01 00:51:46
  TRACK 45 AUDIO
    TITLE "0:"
    INDEX 01 00:53:53
  TRACK 46 AUDIO
    TITLE "14:cjc034_07362"
    INDEX 01 00:54:13
  TRACK 47 AUDIO
    TITLE "0:"
    INDEX 01 00:55:20
  TRACK 48 AUDIO
    TITLE "15:cjc034_07363"
    INDEX 01 00:55:57
  TRACK 49 AUDIO
    TITLE "0:"
    INDEX 01 00:59:59
  TRACK 50 AUDIO
    TITLE "16:cjc034_07364"
    INDEX 01 01:01:15
  TRACK 51 AUDIO
    TITLE "0:"
    INDEX 01 01:04:62
  TRACK 52 AUDIO
    TITLE "12:cjc034_07365"
    INDEX 01 01:05:71
  TRACK 53 AUDIO
    TITLE "0:"
    INDEX 01 01:07:14
  TRACK 54 AUDIO
    TITLE "13:cjc034_07366"
    INDEX 01 01:07:47
  TRACK 55 AUDIO
    TITLE "0:"
    INDEX 01 01:08:50
  TRACK 56 AUDIO
    TITLE "14:cjc034_07367"
    INDEX 01 01:09:12
  TRACK 57 AUDIO
    TITLE "0:"
    INDEX 01 01:10:30
  TRACK 58 AUDIO
    TITLE "15:cjc034_07368"
    INDEX 01 01:10:65
  TRACK 59 AUDIO
    TITLE "0:"
    INDEX 01 01:13:63
  TRACK 60 AUDIO
    TITLE "12:cjc034_07369"
    INDEX 01 01:15:17
  TRACK 61 AUDIO
    TITLE "0:"
    INDEX 01 01:16:34
  TRACK 62 AUDIO
    TITLE "13:cjc034_07370"
    INDEX 01 01:16:67
  TRACK 63 AUDIO
    TITLE "0:"
    INDEX 01 01:18:56
  TRACK 64 AUDIO
    TITLE "14:cjc034_07371"
    INDEX 01 01:19:15
  TRACK 65 AUDIO
    TITLE "0:"
    INDEX 01 01:20:28
  TRACK 66 AUDIO
    TITLE "15:cjc034_07372"
    INDEX 01 01:20:65
  TRACK 67 AUDIO
    TITLE "0:"
    INDEX 01 01:24:26
  TRACK 68 AUDIO
    TITLE "12:cjc034_07373"
    INDEX 01 01:25:60
  TRACK 69 AUDIO
    TITLE "0:"
    INDEX 01 01:26:64
  TRACK 70 AUDIO
    TITLE "13:cjc034_07374"
    INDEX 01 01:27:24
  TRACK 71 AUDIO
    TITLE "0:"
    INDEX 01 01:28:10
  TRACK 72 AUDIO
    TITLE "14:cjc034_07375"
    INDEX 01 01:28:43
  TRACK 73 AUDIO
    TITLE "0:"
    INDEX 01 01:29:48
  TRACK 74 AUDIO
    TITLE "15:cjc034_07376"
    INDEX 01 01:30:07
  TRACK 75 AUDIO
    TITLE "0:"
    INDEX 01 01:33:09
